<svg enable-background="new 0 0 25 25" viewBox="0 0 25 25" xmlns="http://www.w3.org/2000/svg"><path d="m12.5 2.3c3.3 0 3.7 0 5.1.1 3.4.2 5 1.8 5.1 5.1.1 1.3.1 1.7.1 5.1 0 3.3 0 3.7-.1 5.1-.2 3.4-1.7 5-5.1 5.1-1.3.1-1.7.1-5.1.1-3.3 0-3.7 0-5.1-.1-3.4-.2-5-1.8-5.1-5.1-.1-1.3-.1-1.7-.1-5.1 0-3.3 0-3.7.1-5.1.2-3.4 1.7-5 5.1-5.1 1.4-.1 1.8-.1 5.1-.1zm0-2.3c-3.4 0-3.8 0-5.2.1-4.5.2-7 2.7-7.2 7.2-.1 1.4-.1 1.8-.1 5.2s0 3.8.1 5.2c.2 4.5 2.7 7.1 7.3 7.3h5.1s3.8 0 5.2-.1c4.5-.2 7.1-2.7 7.3-7.3.1-1.3.1-1.8.1-5.2s0-3.8-.1-5.2c-.2-4.5-2.7-7.1-7.3-7.3-1.4.1-1.8.1-5.2.1zm0 6.1c-3.5 0-6.4 2.9-6.4 6.4s2.9 6.4 6.4 6.4 6.4-2.9 6.4-6.4-2.9-6.4-6.4-6.4zm0 10.6c-2.3 0-4.2-1.9-4.2-4.2s1.9-4.2 4.2-4.2 4.2 1.9 4.2 4.2-1.9 4.2-4.2 4.2zm6.7-12.4c-.8 0-1.5.7-1.5 1.5s.7 1.5 1.5 1.5 1.5-.7 1.5-1.5-.7-1.5-1.5-1.5z" fill="#525252"/></svg>