<svg enable-background="new 0 0 25 25" viewBox="0 0 25 25" xmlns="http://www.w3.org/2000/svg"><path d="m19.8 0h-14.6c-2.9 0-5.2 2.3-5.2 5.2v14.6c0 2.9 2.3 5.2 5.2 5.2h14.6c2.9 0 5.2-2.3 5.2-5.2v-14.6c0-2.9-2.3-5.2-5.2-5.2zm.2 18h-2.2c-1.3 0-1.5-.7-2.5-1.7-.9-.9-1.4-.2-1.4 1.1 0 .4-.2.6-.6.6-1.3 0-3.2.2-5.1-1.9-2-2.1-4-6.3-4-6.8 0-.2.2-.3.5-.3h2.3c.6 0 .6.3.8.7.7 1.6 2.4 4.8 2.8 3 .3-1 .4-3.4-.7-3.6-.6-.1.5-.8 2-.8.4 0 .8 0 1.3.1.8.2.8.6.8 1.1 0 2-.3 3.3.2 3.6s1.8-1.8 2.5-3.4c.2-.4.2-.7.8-.7h2.8c1.4 0-.2 2.1-1.4 3.7-1 1.3-1 1.3.2 2.4.8.8 1.8 1.8 1.8 2.4-.1.3-.3.5-.9.5z" fill="#525252"/></svg>